<svg width="81" height="85" viewBox="0 0 81 85" fill="none" xmlns="http://www.w3.org/2000/svg">
<path d="M40.5 0L79.0178 29.3668L64.3053 76.8832H16.6947L1.98221 29.3668L40.5 0Z" fill="#0A192F"/>
<path d="M56 47C56 50.0798 55.3529 52.7414 54.0586 54.9848C52.7644 57.2281 50.9889 58.9582 48.7323 60.1749C46.4757 61.3916 43.8982 62 41 62C38.1018 62 35.5243 61.3916 33.2677 60.1749C31.0111 58.9582 29.2356 57.2281 27.9414 54.9848C26.6471 52.7414 26 50.0798 26 47C26 43.9202 26.6471 41.2586 27.9414 39.0152C29.2356 36.7719 31.0111 35.0418 33.2677 33.8251C35.5243 32.6084 38.1018 32 41 32C43.8982 32 46.4757 32.6084 48.7323 33.8251C50.9889 35.0418 52.7644 36.7719 54.0586 39.0152C55.3529 41.2586 56 43.9202 56 47ZM52.0177 47C52.0177 44.4715 51.5254 42.3375 50.5409 40.5979C49.5675 38.8584 48.2456 37.5418 46.5752 36.6483C44.9159 35.7548 43.0575 35.308 41 35.308C38.9425 35.308 37.0785 35.7548 35.4082 36.6483C33.7489 37.5418 32.427 38.8584 31.4425 40.5979C30.469 42.3375 29.9823 44.4715 29.9823 47C29.9823 49.5285 30.469 51.6625 31.4425 53.4021C32.427 55.1416 33.7489 56.4582 35.4082 57.3517C37.0785 58.2452 38.9425 58.692 41 58.692C43.0575 58.692 44.9159 58.2452 46.5752 57.3517C48.2456 56.4582 49.5675 55.1416 50.5409 53.4021C51.5254 51.6625 52.0177 49.5285 52.0177 47Z" fill="#64FFDA"/>
</svg>
