<svg width="81" height="85" viewBox="0 0 81 85" fill="none" xmlns="http://www.w3.org/2000/svg">
<path d="M55 43C55 46.0798 54.3529 48.7414 53.0586 50.9848C51.7644 53.2281 49.9889 54.9582 47.7323 56.1749C45.4757 57.3916 42.8982 58 40 58C37.1018 58 34.5243 57.3916 32.2677 56.1749C30.0111 54.9582 28.2356 53.2281 26.9414 50.9848C25.6471 48.7414 25 46.0798 25 43C25 39.9202 25.6471 37.2586 26.9414 35.0152C28.2356 32.7719 30.0111 31.0418 32.2677 29.8251C34.5243 28.6084 37.1018 28 40 28C42.8982 28 45.4757 28.6084 47.7323 29.8251C49.9889 31.0418 51.7644 32.7719 53.0586 35.0152C54.3529 37.2586 55 39.9202 55 43ZM51.0177 43C51.0177 40.4715 50.5254 38.3375 49.5409 36.5979C48.5675 34.8584 47.2456 33.5418 45.5752 32.6483C43.9159 31.7548 42.0575 31.308 40 31.308C37.9425 31.308 36.0785 31.7548 34.4082 32.6483C32.7489 33.5418 31.427 34.8584 30.4425 36.5979C29.469 38.3375 28.9823 40.4715 28.9823 43C28.9823 45.5285 29.469 47.6625 30.4425 49.4021C31.427 51.1416 32.7489 52.4582 34.4082 53.3517C36.0785 54.2452 37.9425 54.692 40 54.692C42.0575 54.692 43.9159 54.2452 45.5752 53.3517C47.2456 52.4582 48.5675 51.1416 49.5409 49.4021C50.5254 47.6625 51.0177 45.5285 51.0177 43Z" fill="black"/>
<path d="M4.30602 30.11L40.5 2.51498L76.694 30.11L62.8309 74.8832H18.1691L4.30602 30.11Z" stroke="black" stroke-width="4"/>
</svg>
